<mxfile host="app.diagrams.net" agent="Mozilla/5.0 (Macintosh; Intel Mac OS X 10_15_7) AppleWebKit/537.36 (KHTML, like Gecko) Chrome/140.0.0.0 Safari/537.36" version="28.2.4">
  <diagram name="Page-1" id="FWKtr5iPJwe7uAQWamWS">
    <mxGraphModel dx="785" dy="544" grid="1" gridSize="10" guides="1" tooltips="1" connect="1" arrows="1" fold="1" page="1" pageScale="1" pageWidth="850" pageHeight="1100" math="0" shadow="0">
      <root>
        <mxCell id="0" />
        <mxCell id="1" parent="0" />
        <mxCell id="HNElkAYw-apTUF0FotDL-1" value="Host Weekly Interactive&#xa;YouTube Live Stream" style="whiteSpace=wrap;strokeWidth=2;sketch=1;curveFitting=1;jiggle=2;" vertex="1" parent="1">
          <mxGeometry x="148" y="20" width="231" height="78" as="geometry" />
        </mxCell>
        <mxCell id="HNElkAYw-apTUF0FotDL-2" value="Community Engagement" style="whiteSpace=wrap;strokeWidth=2;sketch=1;curveFitting=1;jiggle=2;" vertex="1" parent="1">
          <mxGeometry x="20" y="171" width="233" height="54" as="geometry" />
        </mxCell>
        <mxCell id="HNElkAYw-apTUF0FotDL-3" value="Subscriber Base" style="whiteSpace=wrap;strokeWidth=2;sketch=1;curveFitting=1;jiggle=2;" vertex="1" parent="1">
          <mxGeometry x="303" y="171" width="172" height="54" as="geometry" />
        </mxCell>
        <mxCell id="HNElkAYw-apTUF0FotDL-4" value="Directly Increases" style="curved=1;startArrow=none;endArrow=block;exitX=0.21;exitY=1;entryX=0.5;entryY=-0.01;rounded=0;sketch=1;curveFitting=1;jiggle=2;" edge="1" parent="1" source="HNElkAYw-apTUF0FotDL-1" target="HNElkAYw-apTUF0FotDL-2">
          <mxGeometry relative="1" as="geometry">
            <Array as="points">
              <mxPoint x="137" y="134" />
            </Array>
          </mxGeometry>
        </mxCell>
        <mxCell id="HNElkAYw-apTUF0FotDL-5" value="Directly Grows" style="curved=1;startArrow=none;endArrow=block;exitX=0.78;exitY=1;entryX=0.5;entryY=-0.01;rounded=0;sketch=1;curveFitting=1;jiggle=2;" edge="1" parent="1" source="HNElkAYw-apTUF0FotDL-1" target="HNElkAYw-apTUF0FotDL-3">
          <mxGeometry relative="1" as="geometry">
            <Array as="points">
              <mxPoint x="389" y="134" />
            </Array>
          </mxGeometry>
        </mxCell>
      </root>
    </mxGraphModel>
  </diagram>
</mxfile>
